<svg width="50" height="50" viewBox="0 0 50 50" fill="none" xmlns="http://www.w3.org/2000/svg">
<path d="M20.8333 10.4167C20.8333 9.3116 21.2723 8.25179 22.0537 7.47039C22.8351 6.68899 23.8949 6.25 25 6.25C26.1051 6.25 27.1649 6.68899 27.9463 7.47039C28.7277 8.25179 29.1667 9.3116 29.1667 10.4167C31.5592 11.548 33.5988 13.309 35.0668 15.511C36.5348 17.7131 37.3759 20.2731 37.5 22.9167V29.1667C37.6568 30.4619 38.1155 31.7022 38.8392 32.7878C39.5629 33.8733 40.5314 34.7738 41.6667 35.4167H8.33334C9.46863 34.7738 10.4371 33.8733 11.1608 32.7878C11.8845 31.7022 12.3432 30.4619 12.5 29.1667V22.9167C12.6241 20.2731 13.4652 17.7131 14.9332 15.511C16.4013 13.309 18.4408 11.548 20.8333 10.4167Z" stroke="black" stroke-width="2" stroke-linecap="round" stroke-linejoin="round"/>
<path d="M18.75 35.4167V37.5C18.75 39.1576 19.4085 40.7473 20.5806 41.9194C21.7527 43.0915 23.3424 43.75 25 43.75C26.6576 43.75 28.2473 43.0915 29.4194 41.9194C30.5915 40.7473 31.25 39.1576 31.25 37.5V35.4167" stroke="black" stroke-width="2" stroke-linecap="round" stroke-linejoin="round"/>
</svg>
